<svg xmlns="http://www.w3.org/2000/svg" style="display:none">
  <symbol id="icon-trophy" viewBox="0 0 24 24" fill="none" stroke="currentColor" stroke-width="1.8" stroke-linecap="round" stroke-linejoin="round">
    <path d="M7 4h10v3a5 5 0 0 1-10 0z"/><path d="M9 18h6"/><path d="M12 14v4"/><path d="M5 5H3a3 3 0 0 0 3 3"/><path d="M19 5h2a3 3 0 0 1-3 3"/>
  </symbol>
  <symbol id="icon-user" viewBox="0 0 24 24" fill="none" stroke="currentColor" stroke-width="1.8" stroke-linecap="round" stroke-linejoin="round">
    <circle cx="12" cy="8" r="4"/><path d="M4 20a8 8 0 0 1 16 0"/>
  </symbol>
  <symbol id="icon-settings" viewBox="0 0 24 24" fill="none" stroke="currentColor" stroke-width="1.8" stroke-linecap="round" stroke-linejoin="round">
    <circle cx="12" cy="12" r="3"/><path d="M19.4 15a1 1 0 0 0 .2 1.1l.1.1a1 1 0 0 1 0 1.4l-1 1a1 1 0 0 1-1.4 0l-.1-.1a1 1 0 0 0-1.1-.2 1 1 0 0 0-.6.9V20a1 1 0 0 1-1 1h-2a1 1 0 0 1-1-1v-.2a1 1 0 0 0-.6-.9 1 1 0 0 0-1.1.2l-.1.1a1 1 0 0 1-1.4 0l-1-1a1 1 0 0 1 0-1.4l.1-.1a1 1 0 0 0 .2-1.1 1 1 0 0 0-.9-.6H4a1 1 0 0 1-1-1v-2a1 1 0 0 1 1-1h.2a1 1 0 0 0 .9-.6 1 1 0 0 0-.2-1.1l-.1-.1a1 1 0 0 1 0-1.4l1-1a1 1 0 0 1 1.4 0l.1.1a1 1 0 0 0 1.1.2 1 1 0 0 0 .6-.9V4a1 1 0 0 1 1-1h2a1 1 0 0 1 1 1v.2a1 1 0 0 0 .6.9 1 1 0 0 0 1.1-.2l.1-.1a1 1 0 0 1 1.4 0l1 1a1 1 0 0 1 0 1.4l-.1.1a1 1 0 0 0-.2 1.1 1 1 0 0 0 .9.6H20a1 1 0 0 1 1 1v2a1 1 0 0 1-1 1h-.2a1 1 0 0 0-.9.6"/>
  </symbol>
  <symbol id="icon-home" viewBox="0 0 24 24" fill="none" stroke="currentColor" stroke-width="1.8" stroke-linecap="round" stroke-linejoin="round">
    <path d="M3 10.5 12 3l9 7.5"/><path d="M5 9.5V21h14V9.5"/>
  </symbol>
  <symbol id="icon-play" viewBox="0 0 24 24" fill="currentColor" stroke="none">
    <path d="M8 5v14l11-7z"/>
  </symbol>
  <symbol id="icon-pause" viewBox="0 0 24 24" fill="currentColor" stroke="none">
    <path d="M7 5h4v14H7zM13 5h4v14h-4z"/>
  </symbol>
  <symbol id="icon-lock" viewBox="0 0 24 24" fill="none" stroke="currentColor" stroke-width="1.8" stroke-linecap="round" stroke-linejoin="round">
    <rect x="4" y="11" width="16" height="10" rx="2"/><path d="M8 11V8a4 4 0 1 1 8 0v3"/>
  </symbol>
  <symbol id="icon-check" viewBox="0 0 24 24" fill="none" stroke="currentColor" stroke-width="2" stroke-linecap="round" stroke-linejoin="round">
    <path d="m5 12 5 5L19 8"/>
  </symbol>
  <symbol id="icon-x" viewBox="0 0 24 24" fill="none" stroke="currentColor" stroke-width="2" stroke-linecap="round">
    <path d="M6 6l12 12M18 6 6 18"/>
  </symbol>
  <symbol id="icon-warning" viewBox="0 0 24 24" fill="none" stroke="currentColor" stroke-width="1.8" stroke-linecap="round" stroke-linejoin="round">
    <path d="M12 3 2.5 20h19z"/><path d="M12 9v5"/><circle cx="12" cy="17" r="1" fill="currentColor"/>
  </symbol>
  <symbol id="icon-info" viewBox="0 0 24 24" fill="none" stroke="currentColor" stroke-width="1.8" stroke-linecap="round" stroke-linejoin="round">
    <circle cx="12" cy="12" r="9"/><path d="M12 10v6"/><circle cx="12" cy="7" r="1" fill="currentColor"/>
  </symbol>
  <symbol id="icon-arrow-left" viewBox="0 0 24 24" fill="none" stroke="currentColor" stroke-width="2" stroke-linecap="round" stroke-linejoin="round">
    <path d="m15 18-6-6 6-6"/>
  </symbol>
  <symbol id="icon-alien" viewBox="0 0 24 24" fill="none" stroke="currentColor" stroke-width="1.8" stroke-linecap="round" stroke-linejoin="round">
    <path d="M12 3c-4.8 0-8 3.6-8 8.1 0 6.3 4.9 9.9 8 9.9s8-3.6 8-9.9C20 6.6 16.8 3 12 3Z"/>
    <path d="M9.2 14.2c.7.9 1.7 1.3 2.8 1.3s2.1-.4 2.8-1.3"/>
    <ellipse cx="8.5" cy="11" rx="1.5" ry="2.2" transform="rotate(28 8.5 11)"/>
    <ellipse cx="15.5" cy="11" rx="1.5" ry="2.2" transform="rotate(-28 15.5 11)"/>
    <path d="M12 3v2.2"/>
  </symbol>
</svg>
